<?xml version="1.0" encoding="utf-8"?>
<!-- Generator: Adobe Illustrator 15.0.2, SVG Export Plug-In . SVG Version: 6.00 Build 0)  -->
<!DOCTYPE svg PUBLIC "-//W3C//DTD SVG 1.1//EN" "http://www.w3.org/Graphics/SVG/1.1/DTD/svg11.dtd">
<svg version="1.1" id="Layer_1" xmlns="http://www.w3.org/2000/svg" xmlns:xlink="http://www.w3.org/1999/xlink" x="0px" y="0px"
	 width="512px" height="512px" viewBox="0 0 512 512" enable-background="new 0 0 512 512" xml:space="preserve">
<title>Pal</title>
<desc>Created with Sketch.</desc>
<g id="Pal">
	<g transform="translate(108.000000, 111.000000)">
		<path id="Oval-2" fill="#ECBD89" stroke="#C68D4F" stroke-width="7.8" d="M159.917,249.156
			c-54.089,0-67.872,146.636-156.691,137.418C-77.476,378.201-99,280.756-99,186.313C-99,29.898,11.669-96.902,148.185-96.902
			S395.37,29.898,395.37,186.313c0,48.161-16.758,155.853-76.251,176.8C225.286,396.154,254.399,249.156,159.917,249.156z
			 M161.591,201.396c37.484,0,67.872-30.388,67.872-67.872c0-37.484-30.388-67.871-67.872-67.871s-67.87,30.387-67.87,67.871
			C93.721,171.009,124.107,201.396,161.591,201.396z"/>
		<circle id="Oval" fill="#4073E6" cx="-14.37" cy="116.766" r="37.706"/>
		<circle id="Oval_1_" fill="#32BC29" cx="181.702" cy="-18.976" r="37.706"/>
		<circle id="Oval_2_" fill="#F1D50B" cx="54.339" cy="9.513" r="37.706"/>
		<circle id="Oval_3_" fill="#E64040" cx="-31.129" cy="239.102" r="37.706"/>
	</g>
</g>
</svg>
